<svg version="1.1" id="Layer_1" xmlns="http://www.w3.org/2000/svg" xmlns:xlink="http://www.w3.org/1999/xlink" x="0px" y="0px"
	 width="100%" viewBox="0 0 500 563" enable-background="new 0 0 500 563" xml:space="preserve">
<path fill="#4197C9" opacity="1.000000" stroke="none" 
	d="
M321.000000,564.000000 
	C214.025040,564.000000 107.550087,564.000000 1.037564,564.000000 
	C1.037564,376.402496 1.037564,188.805008 1.037564,1.103756 
	C167.558258,1.103756 334.116577,1.103756 500.837463,1.103756 
	C500.837463,188.666550 500.837463,376.333252 500.837463,564.000000 
	C441.138397,564.000000 381.319183,564.000000 321.000000,564.000000 
M149.305054,416.384094 
	C149.534088,416.622681 149.773132,416.850769 150.010513,417.859283 
	C150.345917,419.903992 150.681335,421.948700 151.006256,424.926392 
	C151.007706,429.615173 151.009155,434.303955 150.842987,439.807190 
	C149.069168,446.838196 148.761230,453.360229 156.614563,457.238495 
	C157.468094,457.660004 157.977737,458.741333 158.810577,459.247070 
	C165.648575,463.399719 172.083496,469.124451 181.050446,464.278198 
	C189.193771,459.877014 198.647888,456.968475 200.962128,446.240265 
	C204.944489,448.311951 208.926849,450.383606 212.951920,452.817657 
	C213.017960,453.046722 213.075760,453.277832 213.110870,454.356171 
	C213.418091,456.567596 213.725296,458.778992 214.018204,461.920685 
	C214.025085,466.273468 214.031982,470.626221 213.974747,475.767426 
	C213.190735,479.144989 212.918518,482.760834 211.486404,485.836639 
	C209.884888,489.276276 211.664978,490.274292 214.045029,491.463837 
	C221.141602,495.010651 228.294266,498.454041 235.286407,502.196747 
	C238.160568,503.735260 240.355469,503.577576 243.025620,501.729858 
	C246.881683,499.061401 250.938904,496.623077 255.117081,494.491913 
	C268.260101,487.788177 265.685425,492.225311 265.999664,476.986572 
	C266.013336,476.323822 265.997833,475.660461 265.983459,474.174255 
	C264.984558,469.781250 263.985687,465.388214 262.994415,460.122925 
	C262.979950,457.802734 262.965515,455.482513 263.486389,452.937592 
	C263.954559,452.610352 264.422729,452.283112 265.574066,451.770630 
	C268.910645,449.754425 272.247223,447.738220 276.595764,445.110535 
	C271.684265,442.330627 267.847473,440.158997 263.974884,437.052155 
	C263.966919,429.227631 263.954926,421.403137 263.951935,413.578613 
	C263.946838,400.311066 263.949249,400.311066 275.931396,394.835907 
	C275.972565,396.893921 276.013702,398.951904 275.434723,401.332397 
	C271.876312,403.489655 268.317902,405.646942 263.672699,408.463074 
	C268.995789,411.411377 272.999176,413.628723 277.069855,416.165741 
	C277.069855,416.165741 277.130310,416.486755 277.072205,417.428833 
	C277.061188,419.614380 277.050140,421.799957 277.029724,424.846649 
	C277.358673,429.227448 277.687592,433.608246 278.008118,438.922668 
	C278.009918,442.405334 277.779205,445.910828 278.118286,449.360321 
	C278.272064,450.924866 279.163391,453.006256 280.393829,453.775299 
	C286.255554,457.438995 292.410675,460.629395 298.337250,464.194580 
	C302.067902,466.438782 305.416656,466.098053 309.059814,463.981110 
	C314.918091,460.576965 320.964905,457.498474 326.855225,454.147339 
	C328.028778,453.479706 329.688263,452.215790 329.700989,451.208862 
	C329.756592,446.809082 329.288116,442.402679 329.009705,437.084473 
	C328.665283,432.719879 328.320862,428.355316 327.990753,423.102051 
	C327.989655,420.726715 327.988525,418.351379 328.024414,415.584167 
	C328.024414,415.584167 328.050476,415.191406 328.764526,415.035706 
	C332.233276,413.544891 335.702026,412.054047 339.795593,411.046234 
	C341.797455,413.417847 343.379578,416.456665 345.882751,418.031525 
	C352.444580,422.159790 359.361969,425.738953 366.260956,429.297974 
	C367.308136,429.838226 369.254181,429.525696 370.374939,428.887939 
	C377.127625,425.045410 383.829193,421.099945 390.373322,416.915924 
	C391.602905,416.129822 392.942688,413.921387 392.684082,412.695801 
	C391.844360,408.715698 390.286041,404.887268 389.147949,400.259430 
	C390.093323,396.170929 391.038727,392.082397 392.308472,387.261871 
	C392.518982,384.272949 392.729523,381.283997 393.577484,377.944702 
	C396.963013,375.829010 400.348541,373.713318 404.486542,371.127380 
	C399.566132,368.323151 395.821472,366.189026 392.007996,363.112823 
	C391.987061,343.429108 391.995605,323.745270 391.901825,304.061920 
	C391.891937,301.981750 391.280609,299.904510 390.820679,297.184448 
	C384.192352,293.162720 377.564026,289.140991 370.347778,284.763641 
	C365.426849,278.223297 360.505920,271.682983 355.365509,264.850983 
	C359.401581,262.591278 363.434631,260.646576 367.089020,258.148010 
	C368.779388,256.992279 369.731201,254.756363 371.400208,252.406860 
	C371.932892,250.798096 372.465576,249.189331 373.727478,247.766647 
	C377.219849,248.373062 379.918976,252.765839 384.184204,249.780182 
	C390.277985,245.514511 396.509583,241.444336 402.561310,237.121231 
	C403.590973,236.385666 404.671112,234.764252 404.606323,233.615295 
	C404.291626,228.033539 403.595093,222.473297 403.143738,216.043304 
	C404.054779,210.129822 401.888885,206.327240 395.987549,204.362915 
	C392.233093,203.113220 388.520355,201.348969 385.242432,199.141907 
	C379.392181,195.202866 374.551270,196.079468 369.394562,201.277222 
	C368.149323,202.089996 366.995667,203.126434 365.644226,203.679871 
	C355.640045,207.776749 353.910706,215.047256 355.016998,225.302521 
	C356.021423,234.613647 357.146881,242.310928 367.273224,245.552780 
	C363.913025,252.120438 357.137909,253.267410 351.110535,255.322861 
	C349.442932,255.891541 346.513611,255.058914 345.157532,253.798965 
	C341.514709,250.414490 338.295746,246.544586 335.132050,242.684189 
	C333.138672,240.251816 331.161774,239.903198 328.175751,240.847565 
	C312.936188,245.667130 297.603546,250.191971 282.349823,254.967834 
	C279.577179,255.835938 277.832733,255.542877 276.000153,253.063385 
	C272.343719,248.116241 268.293640,243.460037 264.104126,238.045334 
	C263.701324,235.281479 263.298492,232.517609 263.555420,230.028702 
	C264.934998,230.940048 266.473999,231.680908 267.664581,232.794373 
	C271.406708,236.294174 275.015411,236.485718 279.643280,233.990463 
	C286.155914,230.478912 293.126282,227.816406 300.479340,225.378281 
	C302.410370,225.417160 304.402252,225.780777 306.260712,225.432449 
	C311.327423,224.482803 316.325470,223.174088 321.372681,222.111908 
	C339.118011,218.377441 339.121521,218.394073 344.181488,200.342697 
	C345.341705,200.330032 346.542450,200.115738 347.655212,200.339310 
	C352.666351,201.346207 355.534637,199.184052 357.863739,194.776657 
	C361.186737,188.488541 364.858521,182.317429 369.029144,176.566147 
	C372.303986,172.050201 371.694000,168.523376 368.113007,164.105927 
	C364.544495,157.398285 361.073761,150.635132 357.325653,144.029404 
	C356.567657,142.693481 354.800629,141.137238 353.430542,141.069855 
	C344.353271,140.623352 335.257416,140.555069 325.422577,140.212189 
	C324.670227,140.105377 323.917877,139.998566 322.846741,139.305542 
	C314.491516,130.071457 306.079865,120.887405 297.822327,111.566795 
	C295.852234,109.343079 293.977844,108.489777 290.949524,109.200493 
	C278.506378,112.120804 266.000427,114.772156 253.530792,117.581238 
	C240.063812,120.614990 240.070251,120.643593 235.984711,134.126236 
	C232.839111,134.124969 230.805328,128.590088 226.232803,132.424133 
	C217.892853,136.068634 209.515106,139.631241 201.253525,143.445511 
	C200.008072,144.020493 198.631348,145.682953 198.463226,146.990036 
	C197.577560,153.875397 197.060181,160.808136 196.171860,168.573151 
	C196.041794,169.718277 196.084824,170.916656 195.751801,171.999359 
	C194.286499,176.763107 195.653076,180.077332 200.105026,182.579742 
	C203.075760,184.249542 205.579758,186.749710 208.040192,189.614502 
	C207.442612,191.345795 206.431747,193.058136 206.351273,194.813141 
	C206.249008,197.043549 206.117584,199.964783 207.359970,201.447815 
	C213.554367,208.842072 220.319183,215.755463 226.619644,223.065308 
	C229.236862,226.101852 231.922348,227.368698 235.483521,226.600784 
	C235.289932,229.842667 230.754913,232.272797 233.677994,236.086761 
	C235.672348,238.688934 237.724777,241.246582 239.990479,244.504761 
	C242.295563,247.763763 244.954437,250.833847 246.820053,254.327515 
	C249.403534,259.165466 253.123962,261.125793 258.229675,259.661255 
	C264.490845,257.865265 268.900269,259.878448 271.853912,265.385559 
	C274.536194,270.386719 278.456573,270.840790 284.007629,268.918213 
	C293.300018,267.172882 302.634064,265.617188 311.864105,263.588226 
	C315.522125,262.784149 317.318054,263.873413 318.867188,267.036896 
	C320.832916,271.051117 322.846802,275.159058 325.566132,278.662964 
	C331.586700,286.420532 332.767273,294.219971 327.329773,302.688354 
	C326.897278,303.361847 326.807953,304.255646 326.087250,305.493011 
	C290.515289,326.049805 254.933258,346.589233 219.393967,367.202301 
	C217.016617,368.581146 214.962769,370.517761 212.689224,373.103912 
	C212.696060,392.988342 212.702881,412.872772 212.477325,433.143951 
	C212.354858,433.432770 212.339676,433.727081 212.384308,434.837708 
	C212.269394,435.913391 212.154480,436.989075 211.342804,438.199219 
	C207.718002,440.187775 204.093201,442.176331 199.891754,443.595306 
	C199.588791,441.726105 199.285828,439.856903 198.994736,437.145782 
	C199.652786,432.760162 200.310837,428.374512 200.991592,423.110260 
	C200.972031,420.493530 200.952469,417.876801 201.576508,414.914734 
	C203.879959,413.616974 206.189117,412.329193 208.485550,411.019135 
	C211.948669,409.043488 211.625488,407.136047 208.328812,405.361420 
	C205.571091,403.876892 202.784729,402.445618 199.973755,400.055359 
	C199.690552,393.024384 199.407349,385.993408 198.921478,378.314209 
	C194.942902,375.891327 190.964325,373.468445 186.994507,370.107452 
	C186.627029,365.134583 186.259537,360.161713 185.177856,355.089783 
	C183.152283,353.984131 180.955261,353.104095 179.138489,351.723602 
	C175.825180,349.206024 173.015640,349.211548 169.399567,351.562408 
	C162.905182,355.784454 156.004791,359.381958 148.773941,363.546997 
	C148.667725,364.094604 148.561523,364.642242 148.386856,366.055145 
	C148.430679,368.539520 148.555450,371.025574 148.503998,373.507965 
	C148.308655,382.934357 148.056305,392.359558 147.118134,401.901398 
	C143.764038,403.635590 140.409927,405.369781 137.029877,406.231750 
	C137.017899,404.486908 137.005920,402.742065 137.000656,400.079620 
	C136.675430,395.945251 136.497696,391.790833 135.938980,387.688263 
	C135.761520,386.385193 134.870087,384.712219 133.792801,384.074585 
	C126.779274,379.923523 119.687592,375.889679 112.457542,372.132965 
	C111.169487,371.463715 108.906792,371.808502 107.451729,372.470734 
	C100.963356,375.423859 94.574669,378.603241 88.225792,381.849182 
	C87.025909,382.462677 85.300743,383.748718 85.299255,384.726654 
	C85.290504,390.483307 85.720352,396.240570 85.998764,402.926331 
	C86.080536,409.369476 84.334511,416.416595 91.962997,420.299530 
	C95.644943,422.173645 99.454437,423.893280 102.858368,426.196838 
	C109.251907,430.523499 114.719643,429.981354 120.542091,424.848267 
	C126.441185,419.647644 135.386902,417.509155 137.034821,408.610657 
	C139.249405,409.851105 141.463974,411.091583 144.024368,412.867767 
	C145.680969,413.911499 147.337555,414.955231 149.305054,416.384094 
M458.102905,519.829285 
	C457.994629,521.885681 457.086975,524.364380 457.912750,525.927246 
	C462.083862,533.821533 466.469238,541.631409 471.331360,549.112122 
	C472.599396,551.063110 475.766510,552.548462 478.202667,552.783386 
	C481.495972,553.101013 484.925598,552.004822 488.804901,551.441406 
	C486.521667,546.583008 482.893036,542.279846 482.940704,538.017883 
	C482.989960,533.609924 486.608582,529.241821 489.151550,523.820923 
	C484.557404,523.499268 480.993286,523.050903 477.430023,523.057617 
	C474.027679,523.063965 471.960815,521.938904 470.560516,518.611328 
	C469.287079,515.585327 467.047913,512.965759 464.884644,509.627075 
	C462.308899,513.441833 460.379608,516.299255 458.102905,519.829285 
M419.995880,528.514221 
	C419.053528,530.265686 418.019043,531.975098 417.196075,533.780945 
	C416.451599,535.414612 415.261292,537.226196 415.434113,538.833984 
	C416.445282,548.238953 426.028320,554.821472 435.367554,552.867859 
	C438.603241,552.191040 439.151459,550.622742 437.330414,547.958191 
	C435.325714,545.024902 433.388763,542.045288 430.937439,538.356201 
	C436.829254,538.066040 441.736938,537.824341 447.779633,537.526733 
	C441.922791,527.457397 436.846985,518.730835 431.227570,509.069702 
	C427.025818,516.231323 423.629272,522.020508 419.995880,528.514221 
z"/>
<path fill="#3F5EC7" opacity="1.000000" stroke="none" 
	d="
M390.948303,297.825897 
	C391.280609,299.904510 391.891937,301.981750 391.901825,304.061920 
	C391.995605,323.745270 391.987061,343.429108 391.975494,363.924713 
	C391.942688,365.197815 391.942383,365.659027 391.941101,366.533081 
	C391.931213,368.601013 391.922333,370.256104 391.549255,371.945618 
	C389.443604,372.835297 387.681183,373.650604 385.964386,374.552765 
	C379.331696,378.038269 372.713593,381.551514 366.043152,384.584351 
	C365.996216,370.313965 365.996216,356.513702 365.996216,341.578186 
	C356.723724,347.093811 348.526031,351.970154 340.016296,356.918579 
	C337.839874,358.057922 336.080505,359.415436 334.090485,360.135468 
	C329.042816,361.961884 327.663147,365.448792 327.843048,370.595062 
	C328.196625,380.707672 327.980042,390.840179 327.950623,401.303589 
	C327.930969,402.097778 327.960052,402.552826 327.978760,403.431274 
	C327.948517,405.539612 327.928589,407.224609 327.553101,408.993835 
	C325.006531,410.161102 322.793915,411.202789 320.628693,412.335083 
	C314.421600,415.580963 308.233734,418.863556 302.019165,421.655151 
	C302.000031,407.372681 302.000031,393.566803 302.000031,378.671204 
	C292.592834,384.169708 284.220856,389.063110 275.848877,393.956543 
	C263.949249,400.311066 263.946838,400.311066 263.951935,413.578613 
	C263.954926,421.403137 263.966919,429.227631 263.946075,437.861908 
	C263.935333,439.130493 263.953400,439.589355 263.963806,440.467529 
	C263.929321,442.560272 263.902527,444.233673 263.517639,445.950562 
	C261.963959,446.538361 260.736115,447.021942 259.578003,447.636780 
	C252.428055,451.432678 245.293839,455.258118 238.127106,458.601227 
	C238.026871,439.058929 237.953918,419.989105 238.155792,400.705658 
	C242.248978,398.245026 246.067322,395.998016 250.175034,393.471680 
	C250.703354,388.181274 250.942322,383.170258 251.508347,378.045563 
	C282.502411,360.246735 313.169403,342.561554 344.172150,324.787354 
	C347.976135,322.485901 351.444366,320.273468 355.218933,317.866425 
	C358.772888,316.028687 361.897980,314.013885 365.315826,312.887054 
	C367.249603,312.249481 369.770874,312.760742 371.785950,313.455383 
	C372.279755,313.625610 371.710846,316.551910 371.832153,318.196228 
	C372.098694,321.808563 372.494141,325.411377 372.836945,329.018097 
	C373.529297,329.060242 374.221649,329.102386 374.914001,329.144531 
	C374.123077,322.837311 375.794861,317.531860 380.572906,313.516144 
	C384.254639,310.421783 385.158569,306.998932 382.180908,302.800385 
	C385.278259,300.989105 388.113281,299.407501 390.948303,297.825897 
z"/>
<path fill="#B9645A" opacity="1.000000" stroke="none" 
	d="
M226.913361,132.303619 
	C230.805328,128.590088 232.839111,134.124969 236.467041,134.379456 
	C240.742813,137.818985 244.349854,141.279556 248.425888,144.050125 
	C249.953903,145.088745 252.901291,145.294922 254.637833,144.555923 
	C262.600067,141.167557 270.399628,137.385666 278.177704,133.581711 
	C281.072601,132.165955 283.326172,132.425858 285.964996,134.368927 
	C293.473846,139.897934 301.317963,144.974808 308.774689,150.570038 
	C312.461853,153.336731 314.257782,152.704697 316.356049,148.775223 
	C318.089996,145.527939 320.856537,142.831985 323.165527,139.891754 
	C323.917877,139.998566 324.670227,140.105377 325.781189,140.690964 
	C325.165985,146.879089 324.262299,152.601593 323.195007,158.293411 
	C322.420807,162.422012 323.188202,165.617813 327.009674,168.121582 
	C330.308960,170.283218 333.415283,172.893280 336.130371,175.756927 
	C340.297150,180.151688 344.573517,181.416824 350.144104,178.395020 
	C353.319824,176.672318 356.816803,175.261642 360.339508,174.523300 
	C365.855072,173.367279 368.113342,170.087830 368.254242,164.816925 
	C371.694000,168.523376 372.303986,172.050201 369.029144,176.566147 
	C364.858521,182.317429 361.186737,188.488541 357.863739,194.776657 
	C355.534637,199.184052 352.666351,201.346207 347.655212,200.339310 
	C346.542450,200.115738 345.341705,200.330032 343.258728,200.291336 
	C337.366638,200.144394 332.376953,200.292068 327.434357,199.877518 
	C323.360474,199.535858 321.621460,201.128555 321.510437,205.039322 
	C321.468323,206.523071 320.973175,208.020645 321.096344,209.477097 
	C321.393616,212.992569 319.768616,214.875854 316.665680,216.311646 
	C310.985718,218.939880 305.479584,221.943665 299.900940,224.790848 
	C293.126282,227.816406 286.155914,230.478912 279.643280,233.990463 
	C275.015411,236.485718 271.406708,236.294174 267.664581,232.794373 
	C266.473999,231.680908 264.934998,230.940048 263.035187,229.649506 
	C260.094727,227.617783 257.674469,225.965256 254.987701,224.084961 
	C253.553940,223.184128 252.386719,222.511032 251.013214,221.569275 
	C248.260986,219.493118 245.715027,217.685654 242.908371,215.747635 
	C242.461624,215.560822 242.275589,215.504547 241.937897,215.176178 
	C235.157883,210.649704 228.927643,206.147858 230.471420,196.783386 
	C230.483826,196.708176 230.239182,196.590591 229.570114,196.065536 
	C223.013199,201.723633 218.634995,195.845673 213.642563,192.459305 
	C211.866653,191.254700 210.076355,190.071335 208.292633,188.878265 
	C205.579758,186.749710 203.075760,184.249542 200.105026,182.579742 
	C195.653076,180.077332 194.286499,176.763107 195.751801,171.999359 
	C196.084824,170.916656 196.041794,169.718277 196.613800,168.257019 
	C200.475769,170.562698 203.752182,173.411346 207.378662,175.707047 
	C209.096619,176.794556 211.712860,177.671066 213.525803,177.180008 
	C219.612198,175.531403 225.592224,173.404282 231.452438,171.059143 
	C233.197571,170.360779 235.341568,168.550949 235.711563,166.894882 
	C237.195038,160.254868 238.218231,153.494858 239.022675,146.732925 
	C239.213959,145.125198 238.343094,142.912552 237.193253,141.715256 
	C233.981827,138.371353 230.368210,135.413727 226.913361,132.303619 
M242.473618,187.925537 
	C248.707825,193.175461 254.829865,198.569611 261.258728,203.569214 
	C262.779083,204.751587 265.615540,205.488968 267.359344,204.924835 
	C275.748718,202.210968 284.041718,199.152542 292.196381,195.797134 
	C293.928955,195.084229 295.742645,192.795746 296.148041,190.934555 
	C297.987671,182.488785 299.528198,173.962692 300.715424,165.401581 
	C300.982361,163.476685 299.990326,160.649857 298.565002,159.342361 
	C292.073364,153.387436 285.322571,147.697037 278.409760,142.234528 
	C277.047485,141.158081 274.316711,140.768402 272.631683,141.322617 
	C264.411407,144.026169 256.250122,146.961121 248.263046,150.283157 
	C246.401077,151.057587 244.441422,153.469635 243.997910,155.456604 
	C242.115372,163.890503 240.555832,172.417587 239.426788,180.982925 
	C239.163086,182.983368 241.046417,185.266846 242.473618,187.925537 
z"/>
<path fill="#FCFDFD" opacity="1.000000" stroke="none" 
	d="
M343.836426,324.876343 
	C313.169403,342.561554 282.502411,360.246735 251.160919,377.931061 
	C246.475861,375.913422 242.465302,373.896637 238.059326,371.779541 
	C233.549393,373.885559 229.434860,376.091858 225.001404,378.104706 
	C220.707794,376.005798 216.733109,374.100372 212.758423,372.194946 
	C214.962769,370.517761 217.016617,368.581146 219.393967,367.202301 
	C254.933258,346.589233 290.515289,326.049805 326.588745,305.535889 
	C330.328857,307.106628 333.567474,308.634491 336.839600,310.527283 
	C335.990631,313.205811 334.966461,315.478546 334.282898,317.849487 
	C333.917816,319.115753 334.140411,320.551483 334.440369,322.054199 
	C337.800781,323.090546 340.818604,323.983459 343.836426,324.876343 
z"/>
<path fill="#684E76" opacity="1.000000" stroke="none" 
	d="
M334.097778,321.910706 
	C334.140411,320.551483 333.917816,319.115753 334.282898,317.849487 
	C334.966461,315.478546 335.990631,313.205811 337.085327,310.250977 
	C339.141602,304.099792 341.258575,298.659851 342.698029,293.046173 
	C343.289673,290.738831 343.172638,287.659454 342.089172,285.613892 
	C337.106812,276.207214 331.752594,266.991791 326.284393,257.855865 
	C325.636414,256.773285 323.208344,255.765472 322.049591,256.131012 
	C309.050415,260.231659 296.138397,264.608459 283.202911,268.911011 
	C278.456573,270.840790 274.536194,270.386719 271.853912,265.385559 
	C268.900269,259.878448 264.490845,257.865265 258.229675,259.661255 
	C253.123962,261.125793 249.403534,259.165466 246.820053,254.327515 
	C244.954437,250.833847 242.295563,247.763763 240.101135,243.930466 
	C241.789642,242.187866 243.367493,241.019562 245.191727,240.100342 
	C246.704056,242.300903 248.209244,244.140106 249.188217,246.226242 
	C251.520355,251.195862 255.089706,250.947571 259.706940,249.176712 
	C258.539581,247.498627 257.617828,246.173615 256.912781,244.582031 
	C259.555023,242.438187 261.980591,240.560928 264.406158,238.683655 
	C268.293640,243.460037 272.343719,248.116241 276.000153,253.063385 
	C277.832733,255.542877 279.577179,255.835938 282.349823,254.967834 
	C297.603546,250.191971 312.936188,245.667130 328.175751,240.847565 
	C331.161774,239.903198 333.138672,240.251816 335.132050,242.684189 
	C338.295746,246.544586 341.514709,250.414490 345.157532,253.798965 
	C346.513611,255.058914 349.442932,255.891541 351.110535,255.322861 
	C357.137909,253.267410 363.913025,252.120438 367.726013,245.264572 
	C369.785309,245.844437 371.391815,246.712509 372.998291,247.580566 
	C372.465576,249.189331 371.932892,250.798096 370.846924,252.770386 
	C362.200928,256.586853 354.146149,260.133087 345.998138,263.450256 
	C342.343048,264.938293 341.420410,266.993011 342.713013,270.798035 
	C346.077362,280.701813 349.046967,290.738953 352.302856,300.680664 
	C353.564606,304.533264 353.149261,307.635406 350.070709,310.607758 
	C347.104218,313.471893 344.642212,316.858612 341.587891,320.103302 
	C338.844055,320.764160 336.470917,321.337433 334.097778,321.910706 
z"/>
<path fill="#F18C4D" opacity="1.000000" stroke="none" 
	d="
M323.006134,139.598648 
	C320.856537,142.831985 318.089996,145.527939 316.356049,148.775223 
	C314.257782,152.704697 312.461853,153.336731 308.774689,150.570038 
	C301.317963,144.974808 293.473846,139.897934 285.964996,134.368927 
	C283.326172,132.425858 281.072601,132.165955 278.177704,133.581711 
	C270.399628,137.385666 262.600067,141.167557 254.637833,144.555923 
	C252.901291,145.294922 249.953903,145.088745 248.425888,144.050125 
	C244.349854,141.279556 240.742813,137.818985 236.821808,134.310272 
	C240.070251,120.643593 240.063812,120.614990 253.530792,117.581238 
	C266.000427,114.772156 278.506378,112.120804 290.949524,109.200493 
	C293.977844,108.489777 295.852234,109.343079 297.822327,111.566795 
	C306.079865,120.887405 314.491516,130.071457 323.006134,139.598648 
z"/>
<path fill="#B7CFE2" opacity="1.000000" stroke="none" 
	d="
M212.723816,372.649445 
	C216.733109,374.100372 220.707794,376.005798 224.949432,378.547180 
	C225.487610,383.816071 225.758835,388.449005 226.253632,393.326813 
	C230.278458,396.020874 234.079712,398.470093 237.880951,400.919312 
	C237.953918,419.989105 238.026871,439.058929 237.750702,458.636292 
	C229.159332,454.487030 220.917068,449.830200 212.652863,444.791077 
	C212.434555,442.912323 212.238159,441.415833 212.048615,439.610168 
	C212.050156,438.888885 212.044861,438.476837 212.039566,438.064758 
	C212.154480,436.989075 212.269394,435.913391 212.509460,434.237274 
	C212.740829,433.350586 212.765854,433.057373 212.709717,432.757202 
	C212.702881,412.872772 212.696060,392.988342 212.723816,372.649445 
z"/>
<path fill="#3282C7" opacity="1.000000" stroke="none" 
	d="
M86.002441,401.997650 
	C85.720352,396.240570 85.290504,390.483307 85.299255,384.726654 
	C85.300743,383.748718 87.025909,382.462677 88.225792,381.849182 
	C94.574669,378.603241 100.963356,375.423859 107.451729,372.470734 
	C108.906792,371.808502 111.169487,371.463715 112.457542,372.132965 
	C119.687592,375.889679 126.779274,379.923523 133.792801,384.074585 
	C134.870087,384.712219 135.761520,386.385193 135.938980,387.688263 
	C136.497696,391.790833 136.675430,395.945251 136.667816,400.686646 
	C129.955612,404.370056 123.402588,407.137115 117.239166,410.598022 
	C108.804695,415.334229 109.104553,415.304962 100.758789,409.650940 
	C96.202766,406.564392 90.944191,404.514832 86.002441,401.997650 
z"/>
<path fill="#F18C4D" opacity="1.000000" stroke="none" 
	d="
M226.573090,132.363876 
	C230.368210,135.413727 233.981827,138.371353 237.193253,141.715256 
	C238.343094,142.912552 239.213959,145.125198 239.022675,146.732925 
	C238.218231,153.494858 237.195038,160.254868 235.711563,166.894882 
	C235.341568,168.550949 233.197571,170.360779 231.452438,171.059143 
	C225.592224,173.404282 219.612198,175.531403 213.525803,177.180008 
	C211.712860,177.671066 209.096619,176.794556 207.378662,175.707047 
	C203.752182,173.411346 200.475769,170.562698 196.735382,167.832672 
	C197.060181,160.808136 197.577560,153.875397 198.463226,146.990036 
	C198.631348,145.682953 200.008072,144.020493 201.253525,143.445511 
	C209.515106,139.631241 217.892853,136.068634 226.573090,132.363876 
z"/>
<path fill="#244270" opacity="1.000000" stroke="none" 
	d="
M341.958557,320.015717 
	C344.642212,316.858612 347.104218,313.471893 350.070709,310.607758 
	C353.149261,307.635406 353.564606,304.533264 352.302856,300.680664 
	C349.046967,290.738953 346.077362,280.701813 342.713013,270.798035 
	C341.420410,266.993011 342.343048,264.938293 345.998138,263.450256 
	C354.146149,260.133087 362.200928,256.586853 370.655762,253.072052 
	C369.731201,254.756363 368.779388,256.992279 367.089020,258.148010 
	C363.434631,260.646576 359.401581,262.591278 355.365509,264.850983 
	C360.505920,271.682983 365.426849,278.223297 370.689636,285.289520 
	C374.660492,291.553619 378.289551,297.291840 381.918579,303.030060 
	C385.158569,306.998932 384.254639,310.421783 380.572906,313.516144 
	C375.794861,317.531860 374.123077,322.837311 374.914001,329.144531 
	C374.221649,329.102386 373.529297,329.060242 372.836945,329.018097 
	C372.494141,325.411377 372.098694,321.808563 371.832153,318.196228 
	C371.710846,316.551910 372.279755,313.625610 371.785950,313.455383 
	C369.770874,312.760742 367.249603,312.249481 365.315826,312.887054 
	C361.897980,314.013885 358.772888,316.028687 354.809906,317.883026 
	C350.049225,318.734741 346.003876,319.375244 341.958557,320.015717 
z"/>
<path fill="#F18C4D" opacity="1.000000" stroke="none" 
	d="
M368.183624,164.461426 
	C368.113342,170.087830 365.855072,173.367279 360.339508,174.523300 
	C356.816803,175.261642 353.319824,176.672318 350.144104,178.395020 
	C344.573517,181.416824 340.297150,180.151688 336.130371,175.756927 
	C333.415283,172.893280 330.308960,170.283218 327.009674,168.121582 
	C323.188202,165.617813 322.420807,162.422012 323.195007,158.293411 
	C324.262299,152.601593 325.165985,146.879089 326.153687,140.766708 
	C335.257416,140.555069 344.353271,140.623352 353.430542,141.069855 
	C354.800629,141.137238 356.567657,142.693481 357.325653,144.029404 
	C361.073761,150.635132 364.544495,157.398285 368.183624,164.461426 
z"/>
<path fill="#B8645B" opacity="1.000000" stroke="none" 
	d="
M373.362885,247.673615 
	C371.391815,246.712509 369.785309,245.844437 367.884338,244.929688 
	C357.146881,242.310928 356.021423,234.613647 355.016998,225.302521 
	C353.910706,215.047256 355.640045,207.776749 365.644226,203.679871 
	C366.995667,203.126434 368.149323,202.089996 369.706299,201.563324 
	C368.920990,204.431580 368.096130,207.177841 366.661560,209.556381 
	C364.642883,212.903320 365.006927,215.652847 367.397400,218.604202 
	C370.000549,221.818039 372.152679,225.403976 374.831726,228.546066 
	C375.857056,229.748550 377.809906,230.866379 379.316956,230.836945 
	C388.907074,230.649734 398.945801,230.966522 401.834167,218.448608 
	C401.967102,217.872620 402.622009,217.417084 403.033783,216.905426 
	C403.595093,222.473297 404.291626,228.033539 404.606323,233.615295 
	C404.671112,234.764252 403.590973,236.385666 402.561310,237.121231 
	C396.509583,241.444336 390.277985,245.514511 384.184204,249.780182 
	C379.918976,252.765839 377.219849,248.373062 373.362885,247.673615 
z"/>
<path fill="#F18C4D" opacity="1.000000" stroke="none" 
	d="
M403.088745,216.474365 
	C402.622009,217.417084 401.967102,217.872620 401.834167,218.448608 
	C398.945801,230.966522 388.907074,230.649734 379.316956,230.836945 
	C377.809906,230.866379 375.857056,229.748550 374.831726,228.546066 
	C372.152679,225.403976 370.000549,221.818039 367.397400,218.604202 
	C365.006927,215.652847 364.642883,212.903320 366.661560,209.556381 
	C368.096130,207.177841 368.920990,204.431580 370.039459,201.483566 
	C374.551270,196.079468 379.392181,195.202866 385.242432,199.141907 
	C388.520355,201.348969 392.233093,203.113220 395.987549,204.362915 
	C401.888885,206.327240 404.054779,210.129822 403.088745,216.474365 
z"/>
<path fill="#388CC7" opacity="1.000000" stroke="none" 
	d="
M265.995972,474.997406 
	C265.997833,475.660461 266.013336,476.323822 265.999664,476.986572 
	C265.685425,492.225311 268.260101,487.788177 255.117081,494.491913 
	C250.938904,496.623077 246.881683,499.061401 243.025620,501.729858 
	C240.355469,503.577576 238.160568,503.735260 235.286407,502.196747 
	C228.294266,498.454041 221.141602,495.010651 214.045029,491.463837 
	C211.664978,490.274292 209.884888,489.276276 211.486404,485.836639 
	C212.918518,482.760834 213.190735,479.144989 214.342041,475.451416 
	C221.363602,479.118774 227.901978,483.320831 234.745468,486.947144 
	C236.700394,487.983032 240.602829,488.452087 241.798447,487.299500 
	C248.684540,480.661316 257.601532,478.413971 265.995972,474.997406 
z"/>
<path fill="#388CC7" opacity="1.000000" stroke="none" 
	d="
M200.438232,445.906158 
	C198.647888,456.968475 189.193771,459.877014 181.050446,464.278198 
	C172.083496,469.124451 165.648575,463.399719 158.810577,459.247070 
	C157.977737,458.741333 157.468094,457.660004 156.614563,457.238495 
	C148.761230,453.360229 149.069168,446.838196 151.272552,439.466675 
	C157.906281,442.825714 164.191391,446.398499 170.275833,450.285431 
	C172.803192,451.899994 174.391739,451.433014 176.880096,449.948303 
	C184.067703,445.659790 191.591232,441.934265 198.982880,437.987671 
	C199.285828,439.856903 199.588791,441.726105 200.126923,444.167542 
	C200.387482,445.128601 200.412857,445.517365 200.438232,445.906158 
z"/>
<path fill="#388CC7" opacity="1.000000" stroke="none" 
	d="
M86.000603,402.461975 
	C90.944191,404.514832 96.202766,406.564392 100.758789,409.650940 
	C109.104553,415.304962 108.804695,415.334229 117.239166,410.598022 
	C123.402588,407.137115 129.955612,404.370056 136.664459,401.145447 
	C137.005920,402.742065 137.017899,404.486908 136.978638,406.887878 
	C136.927383,407.544006 136.750107,407.967773 136.750107,407.967773 
	C135.386902,417.509155 126.441185,419.647644 120.542091,424.848267 
	C114.719643,429.981354 109.251907,430.523499 102.858368,426.196838 
	C99.454437,423.893280 95.644943,422.173645 91.962997,420.299530 
	C84.334511,416.416595 86.080536,409.369476 86.000603,402.461975 
z"/>
<path fill="#3282C7" opacity="1.000000" stroke="none" 
	d="
M391.984131,387.993896 
	C391.038727,392.082397 390.093323,396.170929 388.739105,400.700012 
	C381.721619,405.175598 375.256683,409.483887 368.417297,413.080048 
	C366.347656,414.168243 362.793884,414.185150 360.690186,413.140930 
	C353.276154,409.460876 346.196655,405.106903 338.996338,400.599854 
	C340.327972,395.794373 341.653473,391.397583 343.338806,387.066528 
	C349.572296,390.820984 355.317230,394.745361 361.393311,398.063416 
	C363.370819,399.143311 366.532715,399.476807 368.593781,398.688934 
	C373.069000,396.978302 377.110077,394.168823 381.469818,392.107117 
	C384.863922,390.502075 388.471466,389.348236 391.984131,387.993896 
z"/>
<path fill="#388CC7" opacity="1.000000" stroke="none" 
	d="
M329.009888,437.998657 
	C329.288116,442.402679 329.756592,446.809082 329.700989,451.208862 
	C329.688263,452.215790 328.028778,453.479706 326.855225,454.147339 
	C320.964905,457.498474 314.918091,460.576965 309.059814,463.981110 
	C305.416656,466.098053 302.067902,466.438782 298.337250,464.194580 
	C292.410675,460.629395 286.255554,457.438995 280.393829,453.775299 
	C279.163391,453.006256 278.272064,450.924866 278.118286,449.360321 
	C277.779205,445.910828 278.009918,442.405334 278.348663,438.531006 
	C285.003662,443.216187 291.714722,447.459229 299.480591,450.191498 
	C303.042572,451.444702 305.477356,451.310669 308.650879,449.353241 
	C315.258057,445.277954 322.203461,441.750977 329.009888,437.998657 
z"/>
<path fill="#B7CFE2" opacity="1.000000" stroke="none" 
	d="
M275.890137,394.396210 
	C284.220856,389.063110 292.592834,384.169708 302.000031,378.671204 
	C302.000031,393.566803 302.000031,407.372681 301.650024,421.647675 
	C293.276642,417.667084 285.253235,413.217377 277.179565,408.578217 
	C277.129272,408.388794 276.986176,408.023895 276.996155,407.611206 
	C276.689056,405.135681 276.371948,403.072784 276.054840,401.009918 
	C276.013702,398.951904 275.972565,396.893921 275.890137,394.396210 
z"/>
<path fill="#388CC7" opacity="1.000000" stroke="none" 
	d="
M338.990234,401.008545 
	C346.196655,405.106903 353.276154,409.460876 360.690186,413.140930 
	C362.793884,414.185150 366.347656,414.168243 368.417297,413.080048 
	C375.256683,409.483887 381.721619,405.175598 388.667328,401.070526 
	C390.286041,404.887268 391.844360,408.715698 392.684082,412.695801 
	C392.942688,413.921387 391.602905,416.129822 390.373322,416.915924 
	C383.829193,421.099945 377.127625,425.045410 370.374939,428.887939 
	C369.254181,429.525696 367.308136,429.838226 366.260956,429.297974 
	C359.361969,425.738953 352.444580,422.159790 345.882751,418.031525 
	C343.379578,416.456665 341.797455,413.417847 339.638245,410.521729 
	C339.326538,408.972504 339.172119,407.947754 339.014404,406.502808 
	C339.004150,404.391235 338.997192,402.699890 338.990234,401.008545 
z"/>
<path fill="#244270" opacity="1.000000" stroke="none" 
	d="
M283.605286,268.914612 
	C296.138397,264.608459 309.050415,260.231659 322.049591,256.131012 
	C323.208344,255.765472 325.636414,256.773285 326.284393,257.855865 
	C331.752594,266.991791 337.106812,276.207214 342.089172,285.613892 
	C343.172638,287.659454 343.289673,290.738831 342.698029,293.046173 
	C341.258575,298.659851 339.141602,304.099792 337.051788,309.886047 
	C333.567474,308.634491 330.328857,307.106628 326.824707,305.312897 
	C326.807953,304.255646 326.897278,303.361847 327.329773,302.688354 
	C332.767273,294.219971 331.586700,286.420532 325.566132,278.662964 
	C322.846802,275.159058 320.832916,271.051117 318.867188,267.036896 
	C317.318054,263.873413 315.522125,262.784149 311.864105,263.588226 
	C302.634064,265.617188 293.300018,267.172882 283.605286,268.914612 
z"/>
<path fill="#388CC7" opacity="1.000000" stroke="none" 
	d="
M458.276611,519.492920 
	C460.379608,516.299255 462.308899,513.441833 464.884644,509.627075 
	C467.047913,512.965759 469.287079,515.585327 470.560516,518.611328 
	C471.960815,521.938904 474.027679,523.063965 477.430023,523.057617 
	C480.993286,523.050903 484.557404,523.499268 489.151550,523.820923 
	C486.608582,529.241821 482.989960,533.609924 482.940704,538.017883 
	C482.893036,542.279846 486.521667,546.583008 488.804901,551.441406 
	C484.925598,552.004822 481.495972,553.101013 478.202667,552.783386 
	C475.766510,552.548462 472.599396,551.063110 471.331360,549.112122 
	C466.469238,541.631409 462.083862,533.821533 457.912750,525.927246 
	C457.086975,524.364380 457.994629,521.885681 458.276611,519.492920 
z"/>
<path fill="#B7CFE2" opacity="1.000000" stroke="none" 
	d="
M147.825256,401.785217 
	C148.056305,392.359558 148.308655,382.934357 148.503998,373.507965 
	C148.555450,371.025574 148.430679,368.539520 148.648651,365.557495 
	C148.910461,365.059845 149.373459,364.948425 149.719193,364.958405 
	C153.767014,367.023376 157.469101,369.078369 161.185715,371.593384 
	C161.357468,381.674652 161.514679,391.295837 162.018158,401.039856 
	C166.275543,403.465057 170.186691,405.767456 174.064850,408.530640 
	C174.043213,413.392700 174.054565,417.793884 173.696320,422.168274 
	C165.229660,417.651154 157.132614,413.160828 148.823517,408.386566 
	C148.350128,406.482269 148.088806,404.861908 147.830841,402.877441 
	C147.831223,402.270660 147.828232,402.027924 147.825256,401.785217 
z"/>
<path fill="#3282C7" opacity="1.000000" stroke="none" 
	d="
M329.009766,437.541565 
	C322.203461,441.750977 315.258057,445.277954 308.650879,449.353241 
	C305.477356,451.310669 303.042572,451.444702 299.480591,450.191498 
	C291.714722,447.459229 285.003662,443.216187 278.352875,438.064209 
	C277.687592,433.608246 277.358673,429.227448 277.392517,424.441711 
	C278.667755,424.388702 279.667694,424.602386 280.478363,425.115234 
	C285.348114,428.196075 289.974365,431.744232 295.094482,434.314453 
	C297.913879,435.729736 301.894989,436.692383 304.722473,435.819305 
	C309.695648,434.283752 314.185822,431.183777 318.877686,428.737823 
	C321.911102,427.156433 324.943573,425.573151 327.976440,423.990723 
	C328.320862,428.355316 328.665283,432.719879 329.009766,437.541565 
z"/>
<path fill="#388CC7" opacity="1.000000" stroke="none" 
	d="
M420.114319,528.161987 
	C423.629272,522.020508 427.025818,516.231323 431.227570,509.069702 
	C436.846985,518.730835 441.922791,527.457397 447.779633,537.526733 
	C441.736938,537.824341 436.829254,538.066040 430.937439,538.356201 
	C433.388763,542.045288 435.325714,545.024902 437.330414,547.958191 
	C439.151459,550.622742 438.603241,552.191040 435.367554,552.867859 
	C426.028320,554.821472 416.445282,548.238953 415.434113,538.833984 
	C415.261292,537.226196 416.451599,535.414612 417.196075,533.780945 
	C418.019043,531.975098 419.053528,530.265686 420.114319,528.161987 
z"/>
<path fill="#3282C7" opacity="1.000000" stroke="none" 
	d="
M265.989716,474.585815 
	C257.601532,478.413971 248.684540,480.661316 241.798447,487.299500 
	C240.602829,488.452087 236.700394,487.983032 234.745468,486.947144 
	C227.901978,483.320831 221.363602,479.118774 214.374115,475.057190 
	C214.031982,470.626221 214.025085,466.273468 214.362167,461.531464 
	C220.524185,464.580200 226.346146,468.011597 232.159042,471.458252 
	C236.667938,474.131714 240.827225,474.518494 245.537186,471.236603 
	C251.053940,467.392578 257.144897,464.372620 262.986786,460.995209 
	C263.985687,465.388214 264.984558,469.781250 265.989716,474.585815 
z"/>
<path fill="#3282C7" opacity="1.000000" stroke="none" 
	d="
M198.988800,437.566711 
	C191.591232,441.934265 184.067703,445.659790 176.880096,449.948303 
	C174.391739,451.433014 172.803192,451.899994 170.275833,450.285431 
	C164.191391,446.398499 157.906281,442.825714 151.356354,439.059448 
	C151.009155,434.303955 151.007706,429.615173 151.372101,424.483093 
	C157.049927,427.318970 162.804535,430.068481 167.546036,434.030426 
	C172.042191,437.787354 175.229889,436.414398 179.530960,434.074402 
	C186.456177,430.306824 193.801208,427.310852 200.968872,423.988892 
	C200.310837,428.374512 199.652786,432.760162 198.988800,437.566711 
z"/>
<path fill="#684E76" opacity="1.000000" stroke="none" 
	d="
M208.166412,189.246384 
	C210.076355,190.071335 211.866653,191.254700 213.642563,192.459305 
	C218.634995,195.845673 223.013199,201.723633 229.570114,196.065536 
	C230.239182,196.590591 230.483826,196.708176 230.471420,196.783386 
	C228.927643,206.147858 235.157883,210.649704 241.716217,215.478668 
	C239.664795,219.306519 237.683380,222.559753 235.701965,225.813004 
	C231.922348,227.368698 229.236862,226.101852 226.619644,223.065308 
	C220.319183,215.755463 213.554367,208.842072 207.359970,201.447815 
	C206.117584,199.964783 206.249008,197.043549 206.351273,194.813141 
	C206.431747,193.058136 207.442612,191.345795 208.166412,189.246384 
z"/>
<path fill="#4160C7" opacity="1.000000" stroke="none" 
	d="
M161.671906,400.917053 
	C161.514679,391.295837 161.357468,381.674652 161.470184,371.402039 
	C168.984894,366.576202 176.258865,362.450806 183.441925,358.172729 
	C184.482056,357.553223 185.086182,356.201660 185.892059,355.188843 
	C186.259537,360.161713 186.627029,365.134583 186.701538,370.750885 
	C182.542862,373.910431 178.677170,376.426514 174.584366,379.289886 
	C174.158356,384.356171 173.959442,389.075134 173.439865,393.922852 
	C169.303436,396.340088 165.487671,398.628571 161.671906,400.917053 
z"/>
<path fill="#3F5EC7" opacity="1.000000" stroke="none" 
	d="
M174.065933,422.195099 
	C174.054565,417.793884 174.043213,413.392700 174.364883,408.361725 
	C178.458160,405.476837 182.218399,403.221741 186.308899,400.707397 
	C187.115753,395.326233 187.592346,390.204285 188.395203,384.963440 
	C192.189026,382.883850 195.656586,380.923157 199.124146,378.962433 
	C199.407349,385.993408 199.690552,393.024384 199.947540,400.855469 
	C199.942413,402.101410 199.963531,402.547272 199.975983,403.418884 
	C199.953064,405.538239 199.938797,407.231873 199.571899,409.005737 
	C195.133850,411.185486 191.038620,413.266113 186.965652,415.389435 
	C182.654709,417.636810 178.364960,419.924835 174.065933,422.195099 
z"/>
<path fill="#684E76" opacity="1.000000" stroke="none" 
	d="
M300.190125,225.084564 
	C305.479584,221.943665 310.985718,218.939880 316.665680,216.311646 
	C319.768616,214.875854 321.393616,212.992569 321.096344,209.477097 
	C320.973175,208.020645 321.468323,206.523071 321.510437,205.039322 
	C321.621460,201.128555 323.360474,199.535858 327.434357,199.877518 
	C332.376953,200.292068 337.366638,200.144394 342.821106,200.329590 
	C339.121521,218.394073 339.118011,218.377441 321.372681,222.111908 
	C316.325470,223.174088 311.327423,224.482803 306.260712,225.432449 
	C304.402252,225.780777 302.410370,225.417160 300.190125,225.084564 
z"/>
<path fill="#F8FAFB" opacity="1.000000" stroke="none" 
	d="
M185.534958,355.139313 
	C185.086182,356.201660 184.482056,357.553223 183.441925,358.172729 
	C176.258865,362.450806 168.984894,366.576202 161.455658,370.942017 
	C157.469101,369.078369 153.767014,367.023376 149.686096,364.674866 
	C149.296188,364.001068 149.285126,363.620758 149.274048,363.240417 
	C156.004791,359.381958 162.905182,355.784454 169.399567,351.562408 
	C173.015640,349.211548 175.825180,349.206024 179.138489,351.723602 
	C180.955261,353.104095 183.152283,353.984131 185.534958,355.139313 
z"/>
<path fill="#2E7AC7" opacity="1.000000" stroke="none" 
	d="
M327.983582,423.546387 
	C324.943573,425.573151 321.911102,427.156433 318.877686,428.737823 
	C314.185822,431.183777 309.695648,434.283752 304.722473,435.819305 
	C301.894989,436.692383 297.913879,435.729736 295.094482,434.314453 
	C289.974365,431.744232 285.348114,428.196075 280.478363,425.115234 
	C279.667694,424.602386 278.667755,424.388702 277.397217,424.011139 
	C277.050140,421.799957 277.061188,419.614380 277.427307,417.124634 
	C284.432281,420.558685 291.200348,424.105774 297.682831,428.114655 
	C300.995636,430.163391 303.634155,429.975891 306.833649,428.055359 
	C313.793915,423.877319 320.925720,419.985077 327.987427,415.976044 
	C327.988525,418.351379 327.989655,420.726715 327.983582,423.546387 
z"/>
<path fill="#2E7AC7" opacity="1.000000" stroke="none" 
	d="
M262.990601,460.559082 
	C257.144897,464.372620 251.053940,467.392578 245.537186,471.236603 
	C240.827225,474.518494 236.667938,474.131714 232.159042,471.458252 
	C226.346146,468.011597 220.524185,464.580200 214.369324,461.066345 
	C213.725296,458.778992 213.418091,456.567596 213.455200,454.081909 
	C220.573761,457.635468 227.399261,461.376526 234.095963,465.335419 
	C236.635269,466.836548 238.676849,467.128937 241.386215,465.483612 
	C248.459961,461.187958 255.748306,457.245575 262.951080,453.162323 
	C262.965515,455.482513 262.979950,457.802734 262.990601,460.559082 
z"/>
<path fill="#2E7AC7" opacity="1.000000" stroke="none" 
	d="
M392.146301,387.627869 
	C388.471466,389.348236 384.863922,390.502075 381.469818,392.107117 
	C377.110077,394.168823 373.069000,396.978302 368.593781,398.688934 
	C366.532715,399.476807 363.370819,399.143311 361.393311,398.063416 
	C355.317230,394.745361 349.572296,390.820984 343.268951,386.681030 
	C342.560486,384.139252 342.281738,382.048767 342.331177,380.079285 
	C349.125000,383.921021 355.509155,387.796997 362.109650,391.260590 
	C363.913361,392.207092 366.874359,392.865875 368.436951,392.031769 
	C376.459808,387.749329 384.199677,382.936798 392.263672,378.297546 
	C392.488922,378.285645 392.940033,378.295074 392.940033,378.295074 
	C392.729523,381.283997 392.518982,384.272949 392.146301,387.627869 
z"/>
<path fill="#2E7AC7" opacity="1.000000" stroke="none" 
	d="
M200.980225,423.549561 
	C193.801208,427.310852 186.456177,430.306824 179.530960,434.074402 
	C175.229889,436.414398 172.042191,437.787354 167.546036,434.030426 
	C162.804535,430.068481 157.049927,427.318970 151.377350,424.016602 
	C150.681335,421.948700 150.345917,419.903992 150.347473,417.579102 
	C152.461212,417.869080 154.237991,418.439270 156.007324,419.004364 
	C155.999847,418.999268 155.987137,418.987640 156.021393,419.330383 
	C161.435898,422.917145 166.756744,426.268311 172.247955,429.312164 
	C173.310074,429.900909 175.313919,429.775848 176.414551,429.152405 
	C184.355530,424.654388 192.175797,419.943237 200.258881,415.287537 
	C200.483444,415.275360 200.932922,415.260071 200.932922,415.260071 
	C200.952469,417.876801 200.972031,420.493530 200.980225,423.549561 
z"/>
<path fill="#F8FAFB" opacity="1.000000" stroke="none" 
	d="
M199.022812,378.638306 
	C195.656586,380.923157 192.189026,382.883850 188.015305,384.932495 
	C183.143250,382.994507 178.977356,380.968536 174.811462,378.942596 
	C178.677170,376.426514 182.542862,373.910431 186.697144,371.219940 
	C190.964325,373.468445 194.942902,375.891327 199.022812,378.638306 
z"/>
<path fill="#244270" opacity="1.000000" stroke="none" 
	d="
M264.255127,238.364502 
	C261.980591,240.560928 259.555023,242.438187 256.653259,244.431259 
	C247.849243,234.654129 248.667831,238.249115 253.818237,227.445892 
	C254.312576,226.408981 254.776291,225.357483 255.254211,224.312744 
	C257.674469,225.965256 260.094727,227.617783 262.705322,229.512024 
	C263.298492,232.517609 263.701324,235.281479 264.255127,238.364502 
z"/>
<path fill="#244270" opacity="1.000000" stroke="none" 
	d="
M235.592743,226.206894 
	C237.683380,222.559753 239.664795,219.306519 241.867859,215.750778 
	C242.275589,215.504547 242.461624,215.560822 242.882416,216.172028 
	C242.754745,219.231903 242.392334,221.736816 241.921707,224.586884 
	C238.386124,230.843750 242.375687,235.198471 244.945343,239.851257 
	C243.367493,241.019562 241.789642,242.187866 239.981522,243.590149 
	C237.724777,241.246582 235.672348,238.688934 233.677994,236.086761 
	C230.754913,232.272797 235.289932,229.842667 235.592743,226.206894 
z"/>
<path fill="#F8FAFB" opacity="1.000000" stroke="none" 
	d="
M382.180908,302.800385 
	C378.289551,297.291840 374.660492,291.553619 370.983582,285.467346 
	C377.564026,289.140991 384.192352,293.162720 390.884491,297.505188 
	C388.113281,299.407501 385.278259,300.989105 382.180908,302.800385 
z"/>
<path fill="#81A0D6" opacity="1.000000" stroke="none" 
	d="
M263.218750,453.049957 
	C255.748306,457.245575 248.459961,461.187958 241.386215,465.483612 
	C238.676849,467.128937 236.635269,466.836548 234.095963,465.335419 
	C227.399261,461.376526 220.573761,457.635468 213.462433,453.659332 
	C213.075760,453.277832 213.017960,453.046722 212.948700,452.285461 
	C212.956497,451.521484 212.967514,451.289673 213.294189,451.200684 
	C220.482193,455.306000 227.427979,459.148682 234.189850,463.291534 
	C236.799515,464.890472 238.873230,464.901917 241.473862,463.367371 
	C248.588272,459.169373 255.835205,455.196014 263.225464,451.306946 
	C263.911163,451.638794 264.401031,451.797333 264.890869,451.955872 
	C264.422729,452.283112 263.954559,452.610352 263.218750,453.049957 
z"/>
<path fill="#81A0D6" opacity="1.000000" stroke="none" 
	d="
M328.005920,415.780090 
	C320.925720,419.985077 313.793915,423.877319 306.833649,428.055359 
	C303.634155,429.975891 300.995636,430.163391 297.682831,428.114655 
	C291.200348,424.105774 284.432281,420.558685 277.456360,416.653625 
	C277.130310,416.486755 277.069855,416.165741 277.029419,415.728760 
	C276.977570,414.920929 276.966125,414.550049 277.274933,414.292694 
	C284.340302,418.247833 291.178345,421.937958 297.790802,425.995697 
	C301.041046,427.990234 303.603516,427.900909 306.852722,425.897430 
	C313.731873,421.655640 320.887085,417.861572 327.955658,414.211121 
	C328.004974,414.756012 328.027740,414.973694 328.050476,415.191406 
	C328.050476,415.191406 328.024414,415.584167 328.005920,415.780090 
z"/>
<path fill="#8DB5D8" opacity="1.000000" stroke="none" 
	d="
M328.407501,415.113556 
	C328.027740,414.973694 328.004974,414.756012 328.015381,414.032410 
	C328.048553,413.526459 328.145874,413.162018 328.450684,413.008423 
	C331.292847,411.478516 333.830200,410.102203 337.155029,408.298798 
	C333.573578,406.231445 330.781342,404.619690 327.989105,403.007904 
	C327.960052,402.552826 327.930969,402.097778 328.287476,401.398926 
	C332.121246,403.077789 335.569489,405.000397 339.017700,406.923004 
	C339.172119,407.947754 339.326538,408.972504 339.325867,410.280243 
	C335.702026,412.054047 332.233276,413.544891 328.407501,415.113556 
z"/>
<path fill="#8DB5D8" opacity="1.000000" stroke="none" 
	d="
M276.954681,414.179169 
	C276.966125,414.550049 276.977570,414.920929 276.995789,415.568939 
	C272.999176,413.628723 268.995789,411.411377 263.672699,408.463074 
	C268.317902,405.646942 271.876312,403.489655 275.744781,401.171143 
	C276.371948,403.072784 276.689056,405.135681 276.788788,407.360229 
	C276.224915,406.330780 275.878418,405.139679 275.419525,403.562256 
	C272.780304,405.139191 270.476166,406.515900 267.321350,408.400848 
	C270.800262,410.287262 273.369904,411.680634 276.072205,413.288788 
	C276.454773,413.728760 276.704742,413.953949 276.954681,414.179169 
z"/>
<path fill="#8DB5D8" opacity="1.000000" stroke="none" 
	d="
M212.978546,451.057861 
	C212.967514,451.289673 212.956497,451.521484 212.927338,452.104309 
	C208.926849,450.383606 204.944489,448.311951 200.700180,446.073212 
	C200.412857,445.517365 200.387482,445.128601 200.415253,444.452332 
	C204.093201,442.176331 207.718002,440.187775 211.691193,438.131989 
	C212.044861,438.476837 212.050156,438.888885 211.732468,439.757446 
	C208.972244,441.749268 206.535004,443.284668 203.385757,445.268585 
	C207.159332,447.457916 210.111755,449.170868 213.044281,450.928040 
	C213.024399,450.972321 212.978546,451.057861 212.978546,451.057861 
z"/>
<path fill="#8DB5D8" opacity="1.000000" stroke="none" 
	d="
M265.232483,451.863281 
	C264.401031,451.797333 263.911163,451.638794 263.408936,451.143188 
	C263.650177,450.594238 263.862549,450.346985 264.371155,449.976990 
	C267.116272,448.460052 269.523956,447.030457 272.725647,445.129425 
	C269.043823,442.992371 266.507629,441.520264 263.971466,440.048187 
	C263.953400,439.589355 263.935333,439.130493 263.963959,438.329529 
	C267.847473,440.158997 271.684265,442.330627 276.595764,445.110535 
	C272.247223,447.738220 268.910645,449.754425 265.232483,451.863281 
z"/>
<path fill="#8DB5D8" opacity="1.000000" stroke="none" 
	d="
M201.254715,415.087402 
	C200.932922,415.260071 200.483444,415.275360 200.252075,414.964722 
	C200.014801,414.440155 200.008911,414.226227 200.194092,413.823242 
	C200.682983,413.189728 200.980774,412.745300 201.612854,412.224976 
	C204.068390,411.019104 206.189682,409.889160 209.111710,408.332642 
	C205.561325,406.255585 202.772980,404.624359 199.984634,402.993103 
	C199.963531,402.547272 199.942413,402.101410 199.966187,401.323181 
	C202.784729,402.445618 205.571091,403.876892 208.328812,405.361420 
	C211.625488,407.136047 211.948669,409.043488 208.485550,411.019135 
	C206.189117,412.329193 203.879959,413.616974 201.254715,415.087402 
z"/>
<path fill="#8DB5D8" opacity="1.000000" stroke="none" 
	d="
M393.258759,378.119873 
	C392.940033,378.295074 392.488922,378.285645 392.249146,377.954926 
	C392.001953,377.396637 391.994507,377.169037 392.127991,376.780090 
	C392.458862,376.404358 392.628204,376.174774 393.116333,375.831696 
	C395.755737,374.349609 398.055817,372.965851 400.929565,371.236908 
	C397.360687,369.205109 394.651367,367.662689 391.942078,366.120239 
	C391.942383,365.659027 391.942688,365.197815 392.009918,364.395752 
	C395.821472,366.189026 399.566132,368.323151 404.486542,371.127380 
	C400.348541,373.713318 396.963013,375.829010 393.258759,378.119873 
z"/>
<path fill="#8DB5D8" opacity="1.000000" stroke="none" 
	d="
M147.471695,401.843323 
	C147.828232,402.027924 147.831223,402.270660 147.549469,403.023376 
	C144.763672,405.028351 142.262589,406.523315 139.518906,408.163239 
	C141.345154,409.563110 142.768250,410.653931 144.064117,411.892456 
	C143.936890,412.040100 143.678558,412.332031 143.678558,412.332031 
	C141.463974,411.091583 139.249405,409.851105 136.892456,408.289215 
	C136.750107,407.967773 136.927383,407.544006 136.991608,407.323975 
	C140.409927,405.369781 143.764038,403.635590 147.471695,401.843323 
z"/>
<path fill="#81A0D6" opacity="1.000000" stroke="none" 
	d="
M156.014771,419.009460 
	C154.237991,418.439270 152.461212,417.869080 150.353302,417.183624 
	C149.773132,416.850769 149.534088,416.622681 149.238312,415.837646 
	C149.229523,415.054962 149.287476,414.818726 149.653030,414.723175 
	C151.978683,416.245758 153.996735,417.627625 156.014771,419.009460 
z"/>
<path fill="#8DB5D8" opacity="1.000000" stroke="none" 
	d="
M149.345428,414.582458 
	C149.287476,414.818726 149.229523,415.054962 149.082855,415.645081 
	C147.337555,414.955231 145.680969,413.911499 143.851471,412.599915 
	C143.678558,412.332031 143.936890,412.040100 144.386414,411.972229 
	C146.238770,412.574707 147.641617,413.245026 149.120667,414.081696 
	C149.196854,414.248047 149.345428,414.582458 149.345428,414.582458 
z"/>
<path fill="#8DB5D8" opacity="1.000000" stroke="none" 
	d="
M149.024002,363.393738 
	C149.285126,363.620758 149.296188,364.001068 149.340363,364.664917 
	C149.373459,364.948425 148.910461,365.059845 148.682892,365.124847 
	C148.561523,364.642242 148.667725,364.094604 149.024002,363.393738 
z"/>
<path fill="#8DB5D8" opacity="1.000000" stroke="none" 
	d="
M212.593521,432.950562 
	C212.765854,433.057373 212.740829,433.350586 212.533203,433.831879 
	C212.339676,433.727081 212.354858,433.432770 212.593521,432.950562 
z"/>
<path fill="#B7CFE2" opacity="1.000000" stroke="none" 
	d="
M340.328308,356.846466 
	C348.526031,351.970154 356.723724,347.093811 365.996216,341.578186 
	C365.996216,356.513702 365.996216,370.313965 365.671753,384.601501 
	C357.256531,380.641418 349.165833,376.194061 341.000366,371.378082 
	C340.834900,369.768097 340.744141,368.526703 340.722168,366.835022 
	C340.738770,365.473236 340.686615,364.561768 340.647522,363.228088 
	C340.549805,360.819397 340.439056,358.832947 340.328308,356.846466 
z"/>
<path fill="#4197C9" opacity="1.000000" stroke="none" 
	d="
M340.016266,356.918579 
	C340.439056,358.832947 340.549805,360.819397 340.330658,363.354614 
	C336.214050,366.192963 332.427338,368.482513 328.640656,370.772095 
	C328.692627,371.413971 328.744629,372.055847 328.796600,372.697754 
	C332.877228,374.456360 336.957855,376.214966 341.020782,377.988647 
	C341.003082,378.003693 341.016357,377.959381 341.076233,378.219940 
	C341.405884,378.708801 341.675690,378.937103 341.955750,379.363922 
	C341.965942,379.562439 342.002960,379.958252 342.002991,379.958252 
	C342.281738,382.048767 342.560486,384.139252 342.909119,386.615295 
	C341.653473,391.397583 340.327972,395.794373 338.996338,400.599854 
	C338.997192,402.699890 339.004150,404.391235 339.014404,406.502808 
	C335.569489,405.000397 332.121246,403.077789 328.336182,401.059814 
	C327.980042,390.840179 328.196625,380.707672 327.843048,370.595062 
	C327.663147,365.448792 329.042816,361.961884 334.090485,360.135468 
	C336.080505,359.415436 337.839874,358.057922 340.016266,356.918579 
z"/>
<path fill="#2E7AC7" opacity="1.000000" stroke="none" 
	d="
M341.075104,371.746704 
	C349.165833,376.194061 357.256531,380.641418 365.718658,385.071594 
	C372.713593,381.551514 379.331696,378.038269 385.964386,374.552765 
	C387.681183,373.650604 389.443604,372.835297 391.579163,372.299194 
	C392.241180,373.722198 392.509064,374.826111 392.776917,375.929993 
	C392.628204,376.174774 392.458862,376.404358 391.807556,376.919312 
	C384.264038,381.232849 377.118744,385.140198 370.131195,389.311737 
	C367.405182,390.939148 365.240997,391.193420 362.372559,389.445099 
	C355.720459,385.390594 348.823975,381.737061 341.771973,377.876709 
	C341.350372,377.874786 341.183380,377.917084 341.016357,377.959381 
	C341.016357,377.959381 341.003082,378.003693 341.083496,377.715515 
	C341.131317,377.243317 341.098724,377.059357 341.050354,376.450043 
	C341.048096,374.598724 341.061584,373.172699 341.075104,371.746704 
z"/>
<path fill="#2E7AC7" opacity="1.000000" stroke="none" 
	d="
M277.274933,414.292694 
	C276.704742,413.953949 276.454773,413.728760 276.197205,413.021179 
	C276.536346,411.281769 276.883118,410.024689 277.229858,408.767639 
	C285.253235,413.217377 293.276642,417.667084 301.669159,422.124268 
	C308.233734,418.863556 314.421600,415.580963 320.628693,412.335083 
	C322.793915,411.202789 325.006531,410.161102 327.584412,409.419739 
	C328.029449,410.894928 328.087646,412.028473 328.145874,413.162018 
	C328.145874,413.162018 328.048553,413.526459 327.988831,413.705170 
	C320.887085,417.861572 313.731873,421.655640 306.852722,425.897430 
	C303.603516,427.900909 301.041046,427.990234 297.790802,425.995697 
	C291.178345,421.937958 284.340302,418.247833 277.274933,414.292694 
z"/>
<path fill="#2E7AC7" opacity="1.000000" stroke="none" 
	d="
M264.033722,450.064331 
	C263.862549,450.346985 263.650177,450.594238 263.213135,450.969910 
	C255.835205,455.196014 248.588272,459.169373 241.473862,463.367371 
	C238.873230,464.901917 236.799515,464.890472 234.189850,463.291534 
	C227.427979,459.148682 220.482193,455.306000 213.294189,451.200684 
	C212.978546,451.057861 213.024399,450.972321 213.008301,450.590332 
	C212.886383,448.530029 212.780594,446.851685 212.674805,445.173370 
	C220.917068,449.830200 229.159332,454.487030 237.778000,459.108795 
	C245.293839,455.258118 252.428055,451.432678 259.578003,447.636780 
	C260.736115,447.021942 261.963959,446.538361 263.551727,446.367126 
	C263.973846,447.848236 264.003784,448.956299 264.033722,450.064331 
z"/>
<path fill="#B7CFE2" opacity="1.000000" stroke="none" 
	d="
M238.454742,371.879883 
	C242.465302,373.896637 246.475861,375.913422 250.833862,378.044708 
	C250.942322,383.170258 250.703354,388.181274 250.054352,393.175293 
	C245.788452,390.794098 241.932587,388.429962 238.092224,385.595459 
	C238.223389,380.709991 238.339066,376.294952 238.454742,371.879883 
z"/>
<path fill="#F8FAFB" opacity="1.000000" stroke="none" 
	d="
M238.076721,386.065826 
	C241.932587,388.429962 245.788452,390.794098 249.764999,393.454651 
	C246.067322,395.998016 242.248978,398.245026 238.155792,400.705658 
	C234.079712,398.470093 230.278458,396.020874 226.543762,393.141266 
	C230.432449,390.495850 234.254578,388.280853 238.076721,386.065826 
z"/>
<path fill="#81A0D6" opacity="1.000000" stroke="none" 
	d="
M341.587891,320.103302 
	C346.003876,319.375244 350.049225,318.734741 354.503571,318.077637 
	C351.444366,320.273468 347.976135,322.485901 344.172150,324.787354 
	C340.818604,323.983459 337.800781,323.090546 334.440369,322.054169 
	C336.470917,321.337433 338.844055,320.764160 341.587891,320.103302 
z"/>
<path fill="#4197C9" opacity="1.000000" stroke="none" 
	d="
M393.116302,375.831696 
	C392.509064,374.826111 392.241180,373.722198 391.943359,372.264709 
	C391.922333,370.256104 391.931213,368.601013 391.941101,366.533081 
	C394.651367,367.662689 397.360687,369.205109 400.929565,371.236908 
	C398.055817,372.965851 395.755737,374.349609 393.116302,375.831696 
z"/>
<path fill="#4197C9" opacity="1.000000" stroke="none" 
	d="
M328.450684,413.008423 
	C328.087646,412.028473 328.029449,410.894928 327.939972,409.335510 
	C327.928589,407.224609 327.948517,405.539612 327.978760,403.431274 
	C330.781342,404.619690 333.573578,406.231445 337.155029,408.298798 
	C333.830200,410.102203 331.292847,411.478516 328.450684,413.008423 
z"/>
<path fill="#4197C9" opacity="1.000000" stroke="none" 
	d="
M264.371155,449.976990 
	C264.003784,448.956299 263.973846,447.848236 263.909821,446.323608 
	C263.902527,444.233673 263.929321,442.560272 263.963806,440.467529 
	C266.507629,441.520264 269.043823,442.992371 272.725647,445.129425 
	C269.523956,447.030457 267.116272,448.460052 264.371155,449.976990 
z"/>
<path fill="#F28C4D" opacity="1.000000" stroke="none" 
	d="
M242.207764,187.672821 
	C241.046417,185.266846 239.163086,182.983368 239.426788,180.982925 
	C240.555832,172.417587 242.115372,163.890503 243.997910,155.456604 
	C244.441422,153.469635 246.401077,151.057587 248.263046,150.283157 
	C256.250122,146.961121 264.411407,144.026169 272.631683,141.322617 
	C274.316711,140.768402 277.047485,141.158081 278.409760,142.234528 
	C285.322571,147.697037 292.073364,153.387436 298.565002,159.342361 
	C299.990326,160.649857 300.982361,163.476685 300.715424,165.401581 
	C299.528198,173.962692 297.987671,182.488785 296.148041,190.934555 
	C295.742645,192.795746 293.928955,195.084229 292.196381,195.797134 
	C284.041718,199.152542 275.748718,202.210968 267.359344,204.924835 
	C265.615540,205.488968 262.779083,204.751587 261.258728,203.569214 
	C254.829865,198.569611 248.707825,193.175461 242.207764,187.672821 
z"/>
<path fill="#4197C9" opacity="1.000000" stroke="none" 
	d="
M245.191727,240.100342 
	C242.375687,235.198471 238.386124,230.843750 242.317169,224.516098 
	C245.620392,223.346069 248.419952,222.591995 251.219498,221.837936 
	C252.386719,222.511032 253.553940,223.184128 254.987701,224.084976 
	C254.776291,225.357483 254.312576,226.408981 253.818237,227.445892 
	C248.667831,238.249115 247.849243,234.654129 256.436584,244.697830 
	C257.617828,246.173615 258.539581,247.498627 259.706940,249.176712 
	C255.089706,250.947571 251.520355,251.195862 249.188217,246.226242 
	C248.209244,244.140106 246.704056,242.300903 245.191727,240.100342 
z"/>
<path fill="#684E76" opacity="1.000000" stroke="none" 
	d="
M251.013214,221.569275 
	C248.419952,222.591995 245.620392,223.346069 242.425385,224.170929 
	C242.392334,221.736816 242.754745,219.231903 243.143097,216.302582 
	C245.715027,217.685654 248.260986,219.493118 251.013214,221.569275 
z"/>
<path fill="#4160C7" opacity="1.000000" stroke="none" 
	d="
M238.092224,385.595459 
	C234.254578,388.280853 230.432449,390.495850 226.320190,392.896423 
	C225.758835,388.449005 225.487610,383.816071 225.268372,378.740662 
	C229.434860,376.091858 233.549393,373.885559 238.059326,371.779541 
	C238.339066,376.294952 238.223389,380.709991 238.092224,385.595459 
z"/>
<path fill="#4197C9" opacity="1.000000" stroke="none" 
	d="
M212.652863,444.791077 
	C212.780594,446.851685 212.886383,448.530029 213.028168,450.546082 
	C210.111755,449.170868 207.159332,447.457916 203.385757,445.268585 
	C206.535004,443.284668 208.972244,441.749268 211.725616,440.066650 
	C212.238159,441.415833 212.434555,442.912323 212.652863,444.791077 
z"/>
<path fill="#4197C9" opacity="1.000000" stroke="none" 
	d="
M277.179565,408.578217 
	C276.883118,410.024689 276.536346,411.281769 276.064575,412.806396 
	C273.369904,411.680634 270.800262,410.287262 267.321350,408.400848 
	C270.476166,406.515900 272.780304,405.139191 275.419525,403.562256 
	C275.878418,405.139679 276.224915,406.330780 276.778809,407.772888 
	C276.986176,408.023895 277.129272,408.388794 277.179565,408.578217 
z"/>
<path fill="#2E7AC7" opacity="1.000000" stroke="none" 
	d="
M149.653030,414.723175 
	C149.345428,414.582458 149.196854,414.248047 149.106750,413.647705 
	C149.022949,411.588409 149.029266,410.129456 149.035553,408.670502 
	C157.132614,413.160828 165.229660,417.651154 173.696320,422.168274 
	C178.364960,419.924835 182.654709,417.636810 186.965652,415.389435 
	C191.038620,413.266113 195.133850,411.185486 199.659164,409.359161 
	C200.492233,410.521820 200.885406,411.411316 201.278580,412.300842 
	C200.980774,412.745300 200.682983,413.189728 199.865509,413.937744 
	C192.297775,418.223938 185.174438,422.081360 178.238831,426.251068 
	C175.482956,427.907898 173.238144,427.978149 170.454483,426.411133 
	C165.734695,423.754272 160.819931,421.443756 155.987122,418.987671 
	C155.987137,418.987640 155.999847,418.999268 156.007309,419.004364 
	C153.996735,417.627625 151.978683,416.245758 149.653030,414.723175 
z"/>
<path fill="#F8FAFB" opacity="1.000000" stroke="none" 
	d="
M185.978653,400.966614 
	C182.218399,403.221741 178.458160,405.476837 174.397873,407.900879 
	C170.186691,405.767456 166.275543,403.465057 162.018158,401.039856 
	C165.487671,398.628571 169.303436,396.340088 173.800293,394.024933 
	C178.313797,396.321045 182.146225,398.643829 185.978653,400.966614 
z"/>
<path fill="#4197C9" opacity="1.000000" stroke="none" 
	d="
M148.823517,408.386566 
	C149.029266,410.129456 149.022949,411.588409 149.030548,413.481354 
	C147.641617,413.245026 146.238770,412.574707 144.513641,411.824585 
	C142.768250,410.653931 141.345154,409.563110 139.518906,408.163239 
	C142.262589,406.523315 144.763672,405.028351 147.546112,403.387482 
	C148.088806,404.861908 148.350128,406.482269 148.823517,408.386566 
z"/>
<path fill="#B7CFE2" opacity="1.000000" stroke="none" 
	d="
M186.308899,400.707397 
	C182.146225,398.643829 178.313797,396.321045 174.120941,393.896179 
	C173.959442,389.075134 174.158356,384.356171 174.584366,379.289886 
	C178.977356,380.968536 183.143250,382.994507 187.689041,385.051392 
	C187.592346,390.204285 187.115753,395.326233 186.308899,400.707397 
z"/>
<path fill="#4197C9" opacity="1.000000" stroke="none" 
	d="
M201.612854,412.224976 
	C200.885406,411.411316 200.492233,410.521820 200.011795,409.278870 
	C199.938797,407.231873 199.953064,405.538239 199.975983,403.418884 
	C202.772980,404.624359 205.561325,406.255585 209.111710,408.332642 
	C206.189682,409.889160 204.068390,411.019104 201.612854,412.224976 
z"/>
<path fill="#81A0D6" opacity="1.000000" stroke="none" 
	d="
M342.026581,377.920959 
	C348.823975,381.737061 355.720459,385.390594 362.372559,389.445099 
	C365.240997,391.193420 367.405182,390.939148 370.131195,389.311737 
	C377.118744,385.140198 384.264038,381.232849 391.666626,377.080658 
	C391.994507,377.169037 392.001953,377.396637 392.023895,377.966827 
	C384.199677,382.936798 376.459808,387.749329 368.436951,392.031769 
	C366.874359,392.865875 363.913361,392.207092 362.109650,391.260590 
	C355.509155,387.796997 349.125000,383.921021 342.331177,380.079285 
	C342.002960,379.958252 341.965942,379.562439 341.981812,379.052307 
	C342.007294,378.335114 342.016937,378.128052 342.026581,377.920959 
z"/>
<path fill="#81A0D6" opacity="1.000000" stroke="none" 
	d="
M156.021393,419.330383 
	C160.819931,421.443756 165.734695,423.754272 170.454483,426.411133 
	C173.238144,427.978149 175.482956,427.907898 178.238831,426.251068 
	C185.174438,422.081360 192.297775,418.223938 199.674423,414.126801 
	C200.008911,414.226227 200.014801,414.440155 200.027512,414.976898 
	C192.175797,419.943237 184.355530,424.654388 176.414551,429.152405 
	C175.313919,429.775848 173.310074,429.900909 172.247955,429.312164 
	C166.756744,426.268311 161.435898,422.917145 156.021393,419.330383 
z"/>
<path fill="#8DB5D8" opacity="1.000000" stroke="none" 
	d="
M341.066132,376.875366 
	C341.098724,377.059357 341.131317,377.243317 341.101196,377.700439 
	C336.957855,376.214966 332.877228,374.456360 328.796600,372.697754 
	C328.744629,372.055847 328.692627,371.413971 328.640656,370.772095 
	C332.427338,368.482513 336.214050,366.192963 340.317627,363.776855 
	C340.686615,364.561768 340.738770,365.473236 340.388062,366.746124 
	C337.374786,368.293579 334.764374,369.479584 330.885834,371.241760 
	C335.362274,373.718964 338.214203,375.297150 341.066132,376.875366 
z"/>
<path fill="#4197C9" opacity="1.000000" stroke="none" 
	d="
M341.050354,376.450043 
	C338.214203,375.297150 335.362274,373.718964 330.885834,371.241760 
	C334.764374,369.479584 337.374786,368.293579 340.319275,367.196442 
	C340.744141,368.526703 340.834900,369.768097 341.000366,371.378082 
	C341.061584,373.172699 341.048096,374.598724 341.050354,376.450043 
z"/>
<path fill="#8DB5D8" opacity="1.000000" stroke="none" 
	d="
M341.771973,377.876709 
	C342.016937,378.128052 342.007294,378.335114 341.971619,378.853760 
	C341.675690,378.937103 341.405884,378.708801 341.076233,378.219940 
	C341.183380,377.917084 341.350372,377.874786 341.771973,377.876709 
z"/>
</svg>